<mxfile host="app.diagrams.net" agent="Mozilla/5.0 (Windows NT 10.0; Win64; x64) AppleWebKit/537.36 (KHTML, like Gecko) Chrome/127.0.0.0 Safari/537.36 OPR/113.0.0.0" version="24.7.17" pages="5">
  <diagram id="C5RBs43oDa-KdzZeNtuy" name="Old flow">
    <mxGraphModel dx="2220" dy="755" grid="1" gridSize="10" guides="1" tooltips="1" connect="1" arrows="1" fold="1" page="1" pageScale="1" pageWidth="827" pageHeight="1169" background="none" math="0" shadow="0">
      <root>
        <mxCell id="WIyWlLk6GJQsqaUBKTNV-0" />
        <mxCell id="WIyWlLk6GJQsqaUBKTNV-1" parent="WIyWlLk6GJQsqaUBKTNV-0" />
        <mxCell id="WIyWlLk6GJQsqaUBKTNV-2" value="" style="rounded=0;html=1;jettySize=auto;orthogonalLoop=1;fontSize=11;endArrow=block;endFill=0;endSize=8;strokeWidth=1;shadow=0;labelBackgroundColor=none;edgeStyle=orthogonalEdgeStyle;entryX=0;entryY=0.5;entryDx=0;entryDy=0;entryPerimeter=0;fillColor=#f8cecc;strokeColor=#b85450;" parent="WIyWlLk6GJQsqaUBKTNV-1" source="WIyWlLk6GJQsqaUBKTNV-3" target="PDbHhCbxp-KC4mrmz0PF-36" edge="1">
          <mxGeometry relative="1" as="geometry">
            <mxPoint x="-110" y="200" as="targetPoint" />
          </mxGeometry>
        </mxCell>
        <mxCell id="WIyWlLk6GJQsqaUBKTNV-3" value="Cleaned data" style="rounded=1;whiteSpace=wrap;html=1;fontSize=12;glass=0;strokeWidth=1;shadow=0;fillColor=#f8cecc;strokeColor=#b85450;" parent="WIyWlLk6GJQsqaUBKTNV-1" vertex="1">
          <mxGeometry x="-270" y="180" width="120" height="40" as="geometry" />
        </mxCell>
        <mxCell id="PDbHhCbxp-KC4mrmz0PF-1" style="edgeStyle=orthogonalEdgeStyle;rounded=0;orthogonalLoop=1;jettySize=auto;html=1;exitX=1;exitY=0.5;exitDx=0;exitDy=0;endArrow=block;endFill=0;fillColor=#d5e8d4;strokeColor=#82b366;" edge="1" parent="WIyWlLk6GJQsqaUBKTNV-1" source="WIyWlLk6GJQsqaUBKTNV-6" target="WIyWlLk6GJQsqaUBKTNV-10">
          <mxGeometry relative="1" as="geometry" />
        </mxCell>
        <mxCell id="PDbHhCbxp-KC4mrmz0PF-10" style="edgeStyle=orthogonalEdgeStyle;rounded=0;orthogonalLoop=1;jettySize=auto;html=1;exitX=0.5;exitY=1;exitDx=0;exitDy=0;entryX=0.5;entryY=0;entryDx=0;entryDy=0;fillColor=#dae8fc;strokeColor=#6c8ebf;endArrow=block;endFill=0;" edge="1" parent="WIyWlLk6GJQsqaUBKTNV-1" source="WIyWlLk6GJQsqaUBKTNV-6" target="PDbHhCbxp-KC4mrmz0PF-11">
          <mxGeometry relative="1" as="geometry">
            <mxPoint x="50" y="320" as="targetPoint" />
          </mxGeometry>
        </mxCell>
        <mxCell id="PDbHhCbxp-KC4mrmz0PF-27" style="edgeStyle=orthogonalEdgeStyle;rounded=0;orthogonalLoop=1;jettySize=auto;html=1;exitX=1;exitY=1;exitDx=0;exitDy=0;entryX=0;entryY=1;entryDx=0;entryDy=0;endArrow=block;endFill=0;fillColor=#d5e8d4;strokeColor=#82b366;" edge="1" parent="WIyWlLk6GJQsqaUBKTNV-1" source="WIyWlLk6GJQsqaUBKTNV-6" target="PDbHhCbxp-KC4mrmz0PF-26">
          <mxGeometry relative="1" as="geometry">
            <Array as="points">
              <mxPoint x="75" y="270" />
              <mxPoint x="368" y="270" />
            </Array>
          </mxGeometry>
        </mxCell>
        <mxCell id="WIyWlLk6GJQsqaUBKTNV-6" value="Baseline model(s)" style="rhombus;whiteSpace=wrap;html=1;shadow=0;fontFamily=Helvetica;fontSize=12;align=center;strokeWidth=1;spacing=6;spacingTop=-4;fillColor=#d5e8d4;strokeColor=#82b366;" parent="WIyWlLk6GJQsqaUBKTNV-1" vertex="1">
          <mxGeometry y="150" width="100" height="100" as="geometry" />
        </mxCell>
        <mxCell id="PDbHhCbxp-KC4mrmz0PF-6" style="edgeStyle=orthogonalEdgeStyle;rounded=0;orthogonalLoop=1;jettySize=auto;html=1;exitX=0.5;exitY=0;exitDx=0;exitDy=0;entryX=0.5;entryY=1;entryDx=0;entryDy=0;endArrow=block;endFill=0;fillColor=#d5e8d4;strokeColor=#82b366;" edge="1" parent="WIyWlLk6GJQsqaUBKTNV-1" source="WIyWlLk6GJQsqaUBKTNV-10" target="PDbHhCbxp-KC4mrmz0PF-4">
          <mxGeometry relative="1" as="geometry" />
        </mxCell>
        <mxCell id="WIyWlLk6GJQsqaUBKTNV-10" value="K-fold Cross-validation" style="rhombus;whiteSpace=wrap;html=1;shadow=0;fontFamily=Helvetica;fontSize=12;align=center;strokeWidth=1;spacing=6;spacingTop=-4;fillColor=#d5e8d4;strokeColor=#82b366;" parent="WIyWlLk6GJQsqaUBKTNV-1" vertex="1">
          <mxGeometry x="160" y="150" width="120" height="100" as="geometry" />
        </mxCell>
        <mxCell id="PDbHhCbxp-KC4mrmz0PF-7" style="edgeStyle=orthogonalEdgeStyle;rounded=0;orthogonalLoop=1;jettySize=auto;html=1;entryX=1;entryY=0.5;entryDx=0;entryDy=0;endArrow=block;endFill=0;fillColor=#d5e8d4;strokeColor=#82b366;" edge="1" parent="WIyWlLk6GJQsqaUBKTNV-1" source="PDbHhCbxp-KC4mrmz0PF-4" target="PDbHhCbxp-KC4mrmz0PF-8">
          <mxGeometry relative="1" as="geometry">
            <mxPoint x="80" y="50" as="targetPoint" />
          </mxGeometry>
        </mxCell>
        <mxCell id="PDbHhCbxp-KC4mrmz0PF-4" value="Metrics (MSE, Q^2)" style="rhombus;whiteSpace=wrap;html=1;fillColor=#d5e8d4;strokeColor=#82b366;" vertex="1" parent="WIyWlLk6GJQsqaUBKTNV-1">
          <mxGeometry x="157.5" y="10" width="125" height="80" as="geometry" />
        </mxCell>
        <mxCell id="PDbHhCbxp-KC4mrmz0PF-9" style="edgeStyle=orthogonalEdgeStyle;rounded=0;orthogonalLoop=1;jettySize=auto;html=1;exitX=0.5;exitY=1;exitDx=0;exitDy=0;entryX=0.5;entryY=0;entryDx=0;entryDy=0;endArrow=block;endFill=0;fillColor=#d5e8d4;strokeColor=#82b366;" edge="1" parent="WIyWlLk6GJQsqaUBKTNV-1" source="PDbHhCbxp-KC4mrmz0PF-8" target="WIyWlLk6GJQsqaUBKTNV-6">
          <mxGeometry relative="1" as="geometry" />
        </mxCell>
        <mxCell id="PDbHhCbxp-KC4mrmz0PF-8" value="Optimal # of LVs" style="rhombus;whiteSpace=wrap;html=1;fillColor=#d5e8d4;strokeColor=#82b366;" vertex="1" parent="WIyWlLk6GJQsqaUBKTNV-1">
          <mxGeometry x="-5" y="5" width="110" height="90" as="geometry" />
        </mxCell>
        <mxCell id="PDbHhCbxp-KC4mrmz0PF-15" style="edgeStyle=orthogonalEdgeStyle;rounded=0;orthogonalLoop=1;jettySize=auto;html=1;exitX=1;exitY=0.5;exitDx=0;exitDy=0;entryX=0;entryY=0.5;entryDx=0;entryDy=0;fillColor=#dae8fc;strokeColor=#6c8ebf;endArrow=block;endFill=0;" edge="1" parent="WIyWlLk6GJQsqaUBKTNV-1" source="PDbHhCbxp-KC4mrmz0PF-11" target="PDbHhCbxp-KC4mrmz0PF-22">
          <mxGeometry relative="1" as="geometry">
            <mxPoint x="160" y="355" as="targetPoint" />
          </mxGeometry>
        </mxCell>
        <mxCell id="PDbHhCbxp-KC4mrmz0PF-11" value="Importance of variables" style="rhombus;whiteSpace=wrap;html=1;fillColor=#dae8fc;strokeColor=#6c8ebf;" vertex="1" parent="WIyWlLk6GJQsqaUBKTNV-1">
          <mxGeometry x="-2.5" y="305" width="105" height="100" as="geometry" />
        </mxCell>
        <mxCell id="PDbHhCbxp-KC4mrmz0PF-13" value="Coefficients" style="text;html=1;align=center;verticalAlign=middle;resizable=0;points=[];autosize=1;strokeColor=none;fillColor=none;" vertex="1" parent="WIyWlLk6GJQsqaUBKTNV-1">
          <mxGeometry x="-50" y="260" width="90" height="30" as="geometry" />
        </mxCell>
        <mxCell id="PDbHhCbxp-KC4mrmz0PF-30" style="edgeStyle=orthogonalEdgeStyle;rounded=0;orthogonalLoop=1;jettySize=auto;html=1;exitX=1;exitY=0.5;exitDx=0;exitDy=0;entryX=1;entryY=1;entryDx=0;entryDy=0;fillColor=#dae8fc;strokeColor=#6c8ebf;endArrow=block;endFill=0;" edge="1" parent="WIyWlLk6GJQsqaUBKTNV-1" source="PDbHhCbxp-KC4mrmz0PF-22" target="PDbHhCbxp-KC4mrmz0PF-26">
          <mxGeometry relative="1" as="geometry">
            <Array as="points">
              <mxPoint x="423" y="355" />
              <mxPoint x="423" y="272" />
            </Array>
          </mxGeometry>
        </mxCell>
        <mxCell id="PDbHhCbxp-KC4mrmz0PF-22" value="New model(s)" style="rhombus;whiteSpace=wrap;html=1;fillColor=#dae8fc;strokeColor=#6c8ebf;" vertex="1" parent="WIyWlLk6GJQsqaUBKTNV-1">
          <mxGeometry x="169.5" y="303.75" width="101" height="102.5" as="geometry" />
        </mxCell>
        <mxCell id="PDbHhCbxp-KC4mrmz0PF-31" style="edgeStyle=orthogonalEdgeStyle;rounded=0;orthogonalLoop=1;jettySize=auto;html=1;exitX=1;exitY=0.5;exitDx=0;exitDy=0;entryX=0;entryY=0.5;entryDx=0;entryDy=0;fillColor=#e1d5e7;strokeColor=#9673a6;endArrow=block;endFill=0;" edge="1" parent="WIyWlLk6GJQsqaUBKTNV-1" source="PDbHhCbxp-KC4mrmz0PF-26" target="PDbHhCbxp-KC4mrmz0PF-32">
          <mxGeometry relative="1" as="geometry">
            <mxPoint x="580" y="185" as="targetPoint" />
          </mxGeometry>
        </mxCell>
        <mxCell id="PDbHhCbxp-KC4mrmz0PF-26" value="Prediction" style="rhombus;whiteSpace=wrap;html=1;fillColor=#e1d5e7;strokeColor=#9673a6;" vertex="1" parent="WIyWlLk6GJQsqaUBKTNV-1">
          <mxGeometry x="340" y="130" width="110" height="110" as="geometry" />
        </mxCell>
        <mxCell id="PDbHhCbxp-KC4mrmz0PF-32" value="Model comparison" style="rhombus;whiteSpace=wrap;html=1;fillColor=#e1d5e7;strokeColor=#9673a6;" vertex="1" parent="WIyWlLk6GJQsqaUBKTNV-1">
          <mxGeometry x="550" y="142.5" width="90" height="85" as="geometry" />
        </mxCell>
        <mxCell id="PDbHhCbxp-KC4mrmz0PF-34" value="Dimensionality&amp;nbsp;&lt;div&gt;reduction&lt;/div&gt;" style="text;html=1;align=center;verticalAlign=middle;resizable=0;points=[];autosize=1;strokeColor=none;fillColor=none;" vertex="1" parent="WIyWlLk6GJQsqaUBKTNV-1">
          <mxGeometry x="80" y="313" width="100" height="40" as="geometry" />
        </mxCell>
        <mxCell id="PDbHhCbxp-KC4mrmz0PF-37" style="edgeStyle=orthogonalEdgeStyle;rounded=0;orthogonalLoop=1;jettySize=auto;html=1;entryX=0;entryY=0.5;entryDx=0;entryDy=0;endArrow=block;endFill=0;fillColor=#f8cecc;strokeColor=#b85450;" edge="1" parent="WIyWlLk6GJQsqaUBKTNV-1" source="PDbHhCbxp-KC4mrmz0PF-36" target="WIyWlLk6GJQsqaUBKTNV-6">
          <mxGeometry relative="1" as="geometry" />
        </mxCell>
        <mxCell id="PDbHhCbxp-KC4mrmz0PF-38" style="edgeStyle=orthogonalEdgeStyle;rounded=0;orthogonalLoop=1;jettySize=auto;html=1;exitX=0.5;exitY=0;exitDx=0;exitDy=0;entryX=0;entryY=0;entryDx=0;entryDy=0;endArrow=block;endFill=0;fillColor=#f8cecc;strokeColor=#b85450;" edge="1" parent="WIyWlLk6GJQsqaUBKTNV-1">
          <mxGeometry relative="1" as="geometry">
            <mxPoint x="-70" y="160" as="sourcePoint" />
            <mxPoint x="190" y="175" as="targetPoint" />
            <Array as="points">
              <mxPoint x="-70" y="140" />
              <mxPoint x="190" y="140" />
            </Array>
          </mxGeometry>
        </mxCell>
        <mxCell id="PDbHhCbxp-KC4mrmz0PF-39" style="edgeStyle=orthogonalEdgeStyle;rounded=0;orthogonalLoop=1;jettySize=auto;html=1;entryX=0.5;entryY=0;entryDx=0;entryDy=0;fillColor=#f8cecc;strokeColor=#b85450;endArrow=block;endFill=0;" edge="1" parent="WIyWlLk6GJQsqaUBKTNV-1" source="PDbHhCbxp-KC4mrmz0PF-36" target="PDbHhCbxp-KC4mrmz0PF-26">
          <mxGeometry relative="1" as="geometry">
            <Array as="points">
              <mxPoint x="-70" y="110" />
              <mxPoint x="395" y="110" />
            </Array>
          </mxGeometry>
        </mxCell>
        <mxCell id="PDbHhCbxp-KC4mrmz0PF-41" style="edgeStyle=orthogonalEdgeStyle;rounded=0;orthogonalLoop=1;jettySize=auto;html=1;exitX=0.5;exitY=1;exitDx=0;exitDy=0;fillColor=#f8cecc;strokeColor=#b85450;endArrow=block;endFill=0;" edge="1" parent="WIyWlLk6GJQsqaUBKTNV-1" source="PDbHhCbxp-KC4mrmz0PF-36" target="PDbHhCbxp-KC4mrmz0PF-34">
          <mxGeometry relative="1" as="geometry">
            <Array as="points">
              <mxPoint x="-70" y="290" />
              <mxPoint x="130" y="290" />
            </Array>
          </mxGeometry>
        </mxCell>
        <mxCell id="PDbHhCbxp-KC4mrmz0PF-36" value="Data preprocessing" style="ellipse;whiteSpace=wrap;html=1;fillColor=#f8cecc;strokeColor=#b85450;" vertex="1" parent="WIyWlLk6GJQsqaUBKTNV-1">
          <mxGeometry x="-110" y="160" width="80" height="80" as="geometry" />
        </mxCell>
      </root>
    </mxGraphModel>
  </diagram>
  <diagram id="sOTihsLR0pB3gmiy3rI2" name="New Flow">
    <mxGraphModel grid="1" page="1" gridSize="10" guides="1" tooltips="1" connect="1" arrows="1" fold="1" pageScale="1" pageWidth="827" pageHeight="1169" math="0" shadow="0">
      <root>
        <mxCell id="0" />
        <mxCell id="1" parent="0" />
        <mxCell id="Nh0cv9nMsF43ayheAAE7-3" style="edgeStyle=orthogonalEdgeStyle;rounded=0;orthogonalLoop=1;jettySize=auto;html=1;exitX=0.5;exitY=1;exitDx=0;exitDy=0;entryX=0.5;entryY=0;entryDx=0;entryDy=0;fillColor=#f8cecc;strokeColor=#b85450;" edge="1" parent="1" source="Nh0cv9nMsF43ayheAAE7-1" target="Nh0cv9nMsF43ayheAAE7-2">
          <mxGeometry relative="1" as="geometry" />
        </mxCell>
        <mxCell id="Nh0cv9nMsF43ayheAAE7-1" value="Data Pretreatment" style="rounded=0;whiteSpace=wrap;html=1;fillColor=#f8cecc;strokeColor=#b85450;" vertex="1" parent="1">
          <mxGeometry x="120" y="60" width="120" height="60" as="geometry" />
        </mxCell>
        <mxCell id="Ms5_jTf5mmGw1Hs4olU1-3" value="" style="edgeStyle=orthogonalEdgeStyle;rounded=0;orthogonalLoop=1;jettySize=auto;html=1;fillColor=#d5e8d4;strokeColor=#82b366;" edge="1" parent="1" source="Nh0cv9nMsF43ayheAAE7-2" target="Ms5_jTf5mmGw1Hs4olU1-2">
          <mxGeometry relative="1" as="geometry" />
        </mxCell>
        <mxCell id="Nh0cv9nMsF43ayheAAE7-2" value="Model calibration" style="rounded=0;whiteSpace=wrap;html=1;fillColor=#d5e8d4;strokeColor=#82b366;" vertex="1" parent="1">
          <mxGeometry x="120" y="180" width="120" height="60" as="geometry" />
        </mxCell>
        <mxCell id="Ms5_jTf5mmGw1Hs4olU1-1" value="Cleaned data" style="text;html=1;align=center;verticalAlign=middle;resizable=0;points=[];autosize=1;strokeColor=none;fillColor=none;" vertex="1" parent="1">
          <mxGeometry x="180" y="140" width="90" height="30" as="geometry" />
        </mxCell>
        <mxCell id="VcIBpDShcMThgTOZ-5-a-2" value="" style="edgeStyle=orthogonalEdgeStyle;rounded=0;orthogonalLoop=1;jettySize=auto;html=1;fillColor=#dae8fc;strokeColor=#6c8ebf;" edge="1" parent="1" source="Ms5_jTf5mmGw1Hs4olU1-2" target="VcIBpDShcMThgTOZ-5-a-1">
          <mxGeometry relative="1" as="geometry" />
        </mxCell>
        <mxCell id="Ms5_jTf5mmGw1Hs4olU1-2" value="Parameter optimization" style="rounded=0;whiteSpace=wrap;html=1;fillColor=#dae8fc;strokeColor=#6c8ebf;" vertex="1" parent="1">
          <mxGeometry x="120" y="300" width="120" height="60" as="geometry" />
        </mxCell>
        <mxCell id="QYwI_aHUp_VWt_oE_kw7-1" value="Optimal LVs" style="text;html=1;align=center;verticalAlign=middle;resizable=0;points=[];autosize=1;strokeColor=none;fillColor=none;" vertex="1" parent="1">
          <mxGeometry x="180" y="260" width="90" height="30" as="geometry" />
        </mxCell>
        <mxCell id="VcIBpDShcMThgTOZ-5-a-5" value="" style="edgeStyle=orthogonalEdgeStyle;rounded=0;orthogonalLoop=1;jettySize=auto;html=1;fillColor=#f8cecc;strokeColor=#b85450;" edge="1" parent="1" source="VcIBpDShcMThgTOZ-5-a-1" target="VcIBpDShcMThgTOZ-5-a-4">
          <mxGeometry relative="1" as="geometry" />
        </mxCell>
        <mxCell id="VcIBpDShcMThgTOZ-5-a-1" value="Evaluation" style="rounded=0;whiteSpace=wrap;html=1;fillColor=#f8cecc;strokeColor=#b85450;" vertex="1" parent="1">
          <mxGeometry x="120" y="420" width="120" height="60" as="geometry" />
        </mxCell>
        <mxCell id="VcIBpDShcMThgTOZ-5-a-3" value="Optimal variables" style="text;html=1;align=center;verticalAlign=middle;resizable=0;points=[];autosize=1;strokeColor=none;fillColor=none;" vertex="1" parent="1">
          <mxGeometry x="180" y="380" width="120" height="30" as="geometry" />
        </mxCell>
        <mxCell id="VcIBpDShcMThgTOZ-5-a-4" value="Metrics&amp;nbsp;&lt;div&gt;(Q^2, RMSE)&lt;/div&gt;" style="shape=parallelogram;perimeter=parallelogramPerimeter;whiteSpace=wrap;html=1;fixedSize=1;fillColor=#f8cecc;strokeColor=#b85450;rounded=0;" vertex="1" parent="1">
          <mxGeometry x="120" y="540" width="120" height="60" as="geometry" />
        </mxCell>
        <mxCell id="VcIBpDShcMThgTOZ-5-a-6" value="Predictions" style="text;html=1;align=center;verticalAlign=middle;resizable=0;points=[];autosize=1;strokeColor=none;fillColor=none;" vertex="1" parent="1">
          <mxGeometry x="180" y="500" width="80" height="30" as="geometry" />
        </mxCell>
        <mxCell id="PiqcIgBK17uxYe_aaihp-4" value="" style="edgeStyle=orthogonalEdgeStyle;rounded=0;orthogonalLoop=1;jettySize=auto;html=1;fillColor=#d5e8d4;strokeColor=#82b366;" edge="1" parent="1" source="VcIBpDShcMThgTOZ-5-a-8" target="PiqcIgBK17uxYe_aaihp-3">
          <mxGeometry relative="1" as="geometry" />
        </mxCell>
        <mxCell id="VcIBpDShcMThgTOZ-5-a-8" value="Model parameters" style="whiteSpace=wrap;html=1;fillColor=#d5e8d4;strokeColor=#82b366;" vertex="1" parent="1">
          <mxGeometry x="560" y="60" width="120" height="60" as="geometry" />
        </mxCell>
        <mxCell id="VcIBpDShcMThgTOZ-5-a-9" value="General Modelling flow" style="text;html=1;align=center;verticalAlign=middle;resizable=0;points=[];autosize=1;strokeColor=none;fillColor=none;rounded=0;fontStyle=5;fontSize=15;" vertex="1" parent="1">
          <mxGeometry x="100" y="8" width="180" height="30" as="geometry" />
        </mxCell>
        <mxCell id="PiqcIgBK17uxYe_aaihp-1" value="Model calibration&amp;nbsp;&lt;div&gt;with crossvalidation&lt;/div&gt;" style="text;html=1;align=center;verticalAlign=middle;resizable=0;points=[];autosize=1;strokeColor=none;fillColor=none;rounded=0;fontStyle=5;fontSize=15;" vertex="1" parent="1">
          <mxGeometry x="500" width="150" height="50" as="geometry" />
        </mxCell>
        <mxCell id="PiqcIgBK17uxYe_aaihp-5" value="" style="edgeStyle=orthogonalEdgeStyle;rounded=0;orthogonalLoop=1;jettySize=auto;html=1;fillColor=#d5e8d4;strokeColor=#82b366;" edge="1" parent="1" source="PiqcIgBK17uxYe_aaihp-2" target="PiqcIgBK17uxYe_aaihp-3">
          <mxGeometry relative="1" as="geometry" />
        </mxCell>
        <mxCell id="PiqcIgBK17uxYe_aaihp-2" value="K-Fold data split" style="whiteSpace=wrap;html=1;fillColor=#d5e8d4;strokeColor=#82b366;" vertex="1" parent="1">
          <mxGeometry x="400" y="180" width="120" height="60" as="geometry" />
        </mxCell>
        <mxCell id="PiqcIgBK17uxYe_aaihp-8" value="" style="edgeStyle=orthogonalEdgeStyle;rounded=0;orthogonalLoop=1;jettySize=auto;html=1;fillColor=#d5e8d4;strokeColor=#82b366;" edge="1" parent="1" source="PiqcIgBK17uxYe_aaihp-3" target="PiqcIgBK17uxYe_aaihp-7">
          <mxGeometry relative="1" as="geometry" />
        </mxCell>
        <mxCell id="PiqcIgBK17uxYe_aaihp-3" value="Model fitting" style="whiteSpace=wrap;html=1;fillColor=#d5e8d4;strokeColor=#82b366;" vertex="1" parent="1">
          <mxGeometry x="560" y="180" width="120" height="60" as="geometry" />
        </mxCell>
        <mxCell id="PiqcIgBK17uxYe_aaihp-6" value="k-th subset&amp;nbsp;&lt;div&gt;of training samples&lt;/div&gt;" style="text;html=1;align=center;verticalAlign=middle;resizable=0;points=[];autosize=1;strokeColor=none;fillColor=none;" vertex="1" parent="1">
          <mxGeometry x="480" y="140" width="120" height="40" as="geometry" />
        </mxCell>
        <mxCell id="PiqcIgBK17uxYe_aaihp-14" value="" style="edgeStyle=orthogonalEdgeStyle;rounded=0;orthogonalLoop=1;jettySize=auto;html=1;fillColor=#d5e8d4;strokeColor=#82b366;" edge="1" parent="1" source="PiqcIgBK17uxYe_aaihp-7" target="PiqcIgBK17uxYe_aaihp-13">
          <mxGeometry relative="1" as="geometry" />
        </mxCell>
        <mxCell id="PiqcIgBK17uxYe_aaihp-7" value="Model validation" style="whiteSpace=wrap;html=1;fillColor=#d5e8d4;strokeColor=#82b366;" vertex="1" parent="1">
          <mxGeometry x="560" y="300" width="120" height="60" as="geometry" />
        </mxCell>
        <mxCell id="PiqcIgBK17uxYe_aaihp-9" value="Betas" style="text;html=1;align=center;verticalAlign=middle;resizable=0;points=[];autosize=1;strokeColor=none;fillColor=none;" vertex="1" parent="1">
          <mxGeometry x="620" y="260" width="50" height="30" as="geometry" />
        </mxCell>
        <mxCell id="PiqcIgBK17uxYe_aaihp-10" value="nLVs" style="text;html=1;align=center;verticalAlign=middle;resizable=0;points=[];autosize=1;strokeColor=none;fillColor=none;" vertex="1" parent="1">
          <mxGeometry x="620" y="140" width="50" height="30" as="geometry" />
        </mxCell>
        <mxCell id="PiqcIgBK17uxYe_aaihp-16" value="" style="edgeStyle=orthogonalEdgeStyle;rounded=0;orthogonalLoop=1;jettySize=auto;html=1;fillColor=#d5e8d4;strokeColor=#82b366;" edge="1" parent="1" source="PiqcIgBK17uxYe_aaihp-13" target="PiqcIgBK17uxYe_aaihp-15">
          <mxGeometry relative="1" as="geometry" />
        </mxCell>
        <mxCell id="PiqcIgBK17uxYe_aaihp-22" style="edgeStyle=orthogonalEdgeStyle;rounded=0;orthogonalLoop=1;jettySize=auto;html=1;entryX=0.5;entryY=1;entryDx=0;entryDy=0;fillColor=#d5e8d4;strokeColor=#82b366;" edge="1" parent="1" source="PiqcIgBK17uxYe_aaihp-13" target="PiqcIgBK17uxYe_aaihp-21">
          <mxGeometry relative="1" as="geometry" />
        </mxCell>
        <mxCell id="PiqcIgBK17uxYe_aaihp-13" value="k = K?" style="rhombus;whiteSpace=wrap;html=1;fillColor=#d5e8d4;strokeColor=#82b366;" vertex="1" parent="1">
          <mxGeometry x="580" y="400" width="80" height="80" as="geometry" />
        </mxCell>
        <mxCell id="PiqcIgBK17uxYe_aaihp-26" style="edgeStyle=orthogonalEdgeStyle;rounded=0;orthogonalLoop=1;jettySize=auto;html=1;exitX=0.5;exitY=1;exitDx=0;exitDy=0;entryX=0.5;entryY=0;entryDx=0;entryDy=0;fillColor=#d5e8d4;strokeColor=#82b366;" edge="1" parent="1" source="PiqcIgBK17uxYe_aaihp-15" target="PiqcIgBK17uxYe_aaihp-25">
          <mxGeometry relative="1" as="geometry" />
        </mxCell>
        <mxCell id="PiqcIgBK17uxYe_aaihp-15" value="Mean of Metrics over K-folds" style="whiteSpace=wrap;html=1;fillColor=#d5e8d4;strokeColor=#82b366;" vertex="1" parent="1">
          <mxGeometry x="560" y="540" width="120" height="60" as="geometry" />
        </mxCell>
        <mxCell id="PiqcIgBK17uxYe_aaihp-17" value="Yes" style="text;html=1;align=center;verticalAlign=middle;resizable=0;points=[];autosize=1;strokeColor=none;fillColor=none;" vertex="1" parent="1">
          <mxGeometry x="620" y="500" width="40" height="30" as="geometry" />
        </mxCell>
        <mxCell id="PiqcIgBK17uxYe_aaihp-19" value="No" style="text;html=1;align=center;verticalAlign=middle;resizable=0;points=[];autosize=1;strokeColor=none;fillColor=none;" vertex="1" parent="1">
          <mxGeometry x="540" y="410" width="40" height="30" as="geometry" />
        </mxCell>
        <mxCell id="PiqcIgBK17uxYe_aaihp-23" style="edgeStyle=orthogonalEdgeStyle;rounded=0;orthogonalLoop=1;jettySize=auto;html=1;entryX=0.5;entryY=1;entryDx=0;entryDy=0;fillColor=#d5e8d4;strokeColor=#82b366;" edge="1" parent="1" source="PiqcIgBK17uxYe_aaihp-21" target="PiqcIgBK17uxYe_aaihp-2">
          <mxGeometry relative="1" as="geometry" />
        </mxCell>
        <mxCell id="PiqcIgBK17uxYe_aaihp-21" value="k += 1" style="whiteSpace=wrap;html=1;fillColor=#d5e8d4;strokeColor=#82b366;" vertex="1" parent="1">
          <mxGeometry x="430" y="300" width="60" height="30" as="geometry" />
        </mxCell>
        <mxCell id="PiqcIgBK17uxYe_aaihp-24" value="Metrics" style="text;html=1;align=center;verticalAlign=middle;resizable=0;points=[];autosize=1;strokeColor=none;fillColor=none;" vertex="1" parent="1">
          <mxGeometry x="620" y="370" width="60" height="30" as="geometry" />
        </mxCell>
        <mxCell id="PiqcIgBK17uxYe_aaihp-28" value="" style="edgeStyle=orthogonalEdgeStyle;rounded=0;orthogonalLoop=1;jettySize=auto;html=1;fillColor=#d5e8d4;strokeColor=#82b366;" edge="1" parent="1" source="PiqcIgBK17uxYe_aaihp-25">
          <mxGeometry relative="1" as="geometry">
            <mxPoint x="620" y="800" as="targetPoint" />
          </mxGeometry>
        </mxCell>
        <mxCell id="PiqcIgBK17uxYe_aaihp-33" style="edgeStyle=orthogonalEdgeStyle;rounded=0;orthogonalLoop=1;jettySize=auto;html=1;exitX=0;exitY=0.5;exitDx=0;exitDy=0;entryX=0.5;entryY=1;entryDx=0;entryDy=0;fillColor=#d5e8d4;strokeColor=#82b366;" edge="1" parent="1" source="PiqcIgBK17uxYe_aaihp-25" target="PiqcIgBK17uxYe_aaihp-32">
          <mxGeometry relative="1" as="geometry" />
        </mxCell>
        <mxCell id="PiqcIgBK17uxYe_aaihp-25" value="nLVs =&amp;nbsp;&lt;div&gt;# of Features?&lt;/div&gt;" style="rhombus;whiteSpace=wrap;html=1;fillColor=#d5e8d4;strokeColor=#82b366;" vertex="1" parent="1">
          <mxGeometry x="560" y="640" width="120" height="100" as="geometry" />
        </mxCell>
        <mxCell id="PiqcIgBK17uxYe_aaihp-29" value="Yes" style="text;html=1;align=center;verticalAlign=middle;resizable=0;points=[];autosize=1;strokeColor=none;fillColor=none;" vertex="1" parent="1">
          <mxGeometry x="620" y="740" width="40" height="30" as="geometry" />
        </mxCell>
        <mxCell id="PiqcIgBK17uxYe_aaihp-30" value="No" style="text;html=1;align=center;verticalAlign=middle;resizable=0;points=[];autosize=1;strokeColor=none;fillColor=none;" vertex="1" parent="1">
          <mxGeometry x="520" y="660" width="40" height="30" as="geometry" />
        </mxCell>
        <mxCell id="PiqcIgBK17uxYe_aaihp-34" style="edgeStyle=orthogonalEdgeStyle;rounded=0;orthogonalLoop=1;jettySize=auto;html=1;exitX=0.5;exitY=0;exitDx=0;exitDy=0;entryX=0;entryY=0.5;entryDx=0;entryDy=0;fillColor=#d5e8d4;strokeColor=#82b366;" edge="1" parent="1" source="PiqcIgBK17uxYe_aaihp-32" target="VcIBpDShcMThgTOZ-5-a-8">
          <mxGeometry relative="1" as="geometry" />
        </mxCell>
        <mxCell id="PiqcIgBK17uxYe_aaihp-32" value="nLVs += 1" style="whiteSpace=wrap;html=1;fillColor=#d5e8d4;strokeColor=#82b366;" vertex="1" parent="1">
          <mxGeometry x="360" y="370" width="60" height="30" as="geometry" />
        </mxCell>
        <mxCell id="PiqcIgBK17uxYe_aaihp-35" value="Results of crossvalidation" style="shape=parallelogram;perimeter=parallelogramPerimeter;whiteSpace=wrap;html=1;fixedSize=1;fillColor=#d5e8d4;strokeColor=#82b366;" vertex="1" parent="1">
          <mxGeometry x="560" y="780" width="120" height="60" as="geometry" />
        </mxCell>
        <mxCell id="3akkL7tLjyHx38cImUVA-1" value="Parameter optimization&amp;nbsp;&lt;div&gt;with dimsensionality reduction&lt;/div&gt;" style="text;html=1;align=center;verticalAlign=middle;resizable=0;points=[];autosize=1;strokeColor=none;fillColor=none;rounded=0;fontStyle=5;fontSize=15;" vertex="1" parent="1">
          <mxGeometry x="777" width="220" height="50" as="geometry" />
        </mxCell>
        <mxCell id="3akkL7tLjyHx38cImUVA-4" value="" style="edgeStyle=orthogonalEdgeStyle;rounded=0;orthogonalLoop=1;jettySize=auto;html=1;fillColor=#dae8fc;strokeColor=#6c8ebf;" edge="1" parent="1" source="3akkL7tLjyHx38cImUVA-2" target="3akkL7tLjyHx38cImUVA-3">
          <mxGeometry relative="1" as="geometry" />
        </mxCell>
        <mxCell id="3akkL7tLjyHx38cImUVA-2" value="Full model" style="whiteSpace=wrap;html=1;fillColor=#dae8fc;strokeColor=#6c8ebf;" vertex="1" parent="1">
          <mxGeometry x="827" y="60" width="120" height="60" as="geometry" />
        </mxCell>
        <mxCell id="3akkL7tLjyHx38cImUVA-7" value="" style="edgeStyle=orthogonalEdgeStyle;rounded=0;orthogonalLoop=1;jettySize=auto;html=1;fillColor=#dae8fc;strokeColor=#6c8ebf;" edge="1" parent="1" source="3akkL7tLjyHx38cImUVA-3" target="3akkL7tLjyHx38cImUVA-6">
          <mxGeometry relative="1" as="geometry" />
        </mxCell>
        <mxCell id="3akkL7tLjyHx38cImUVA-3" value="Model fitting" style="whiteSpace=wrap;html=1;fillColor=#dae8fc;strokeColor=#6c8ebf;" vertex="1" parent="1">
          <mxGeometry x="827" y="180" width="120" height="60" as="geometry" />
        </mxCell>
        <mxCell id="3akkL7tLjyHx38cImUVA-5" value="Optimal # of LVs" style="text;html=1;align=center;verticalAlign=middle;resizable=0;points=[];autosize=1;strokeColor=none;fillColor=none;" vertex="1" parent="1">
          <mxGeometry x="887" y="140" width="110" height="30" as="geometry" />
        </mxCell>
        <mxCell id="3akkL7tLjyHx38cImUVA-10" value="" style="edgeStyle=orthogonalEdgeStyle;rounded=0;orthogonalLoop=1;jettySize=auto;html=1;fillColor=#dae8fc;strokeColor=#6c8ebf;" edge="1" parent="1" source="3akkL7tLjyHx38cImUVA-6" target="3akkL7tLjyHx38cImUVA-9">
          <mxGeometry relative="1" as="geometry" />
        </mxCell>
        <mxCell id="3akkL7tLjyHx38cImUVA-6" value="Variable importance analysis" style="whiteSpace=wrap;html=1;fillColor=#dae8fc;strokeColor=#6c8ebf;" vertex="1" parent="1">
          <mxGeometry x="827" y="300" width="120" height="60" as="geometry" />
        </mxCell>
        <mxCell id="3akkL7tLjyHx38cImUVA-8" value="Coefficients" style="text;html=1;align=center;verticalAlign=middle;resizable=0;points=[];autosize=1;strokeColor=none;fillColor=none;" vertex="1" parent="1">
          <mxGeometry x="887" y="260" width="90" height="30" as="geometry" />
        </mxCell>
        <mxCell id="Lc6biS_hbyWzV_l5GSRB-2" value="" style="edgeStyle=orthogonalEdgeStyle;rounded=0;orthogonalLoop=1;jettySize=auto;html=1;fillColor=#dae8fc;strokeColor=#6c8ebf;" edge="1" parent="1" source="3akkL7tLjyHx38cImUVA-9" target="Lc6biS_hbyWzV_l5GSRB-1">
          <mxGeometry relative="1" as="geometry" />
        </mxCell>
        <mxCell id="3akkL7tLjyHx38cImUVA-9" value="Reduced model" style="whiteSpace=wrap;html=1;fillColor=#dae8fc;strokeColor=#6c8ebf;" vertex="1" parent="1">
          <mxGeometry x="827" y="420" width="120" height="60" as="geometry" />
        </mxCell>
        <mxCell id="3akkL7tLjyHx38cImUVA-11" value="Most important variables" style="text;html=1;align=center;verticalAlign=middle;resizable=0;points=[];autosize=1;strokeColor=none;fillColor=none;" vertex="1" parent="1">
          <mxGeometry x="887" y="380" width="150" height="30" as="geometry" />
        </mxCell>
        <mxCell id="Lc6biS_hbyWzV_l5GSRB-1" value="Evaluation" style="whiteSpace=wrap;html=1;fillColor=#dae8fc;strokeColor=#6c8ebf;" vertex="1" parent="1">
          <mxGeometry x="827" y="540" width="120" height="60" as="geometry" />
        </mxCell>
        <mxCell id="Lc6biS_hbyWzV_l5GSRB-3" value="Optimized Betas" style="text;html=1;align=center;verticalAlign=middle;resizable=0;points=[];autosize=1;strokeColor=none;fillColor=none;" vertex="1" parent="1">
          <mxGeometry x="887" y="500" width="110" height="30" as="geometry" />
        </mxCell>
      </root>
    </mxGraphModel>
  </diagram>
  <diagram id="lWgtyXMgfKYr4lOqiMEr" name="General flow">
    <mxGraphModel grid="1" page="1" gridSize="10" guides="1" tooltips="1" connect="1" arrows="1" fold="1" pageScale="1" pageWidth="827" pageHeight="1169" math="0" shadow="0">
      <root>
        <mxCell id="0" />
        <mxCell id="1" parent="0" />
        <mxCell id="AtO99DyVUEuOZSjqvL5Y-1" style="edgeStyle=orthogonalEdgeStyle;rounded=0;orthogonalLoop=1;jettySize=auto;html=1;exitX=0.5;exitY=1;exitDx=0;exitDy=0;entryX=0.5;entryY=0;entryDx=0;entryDy=0;fillColor=#f8cecc;strokeColor=#b85450;strokeWidth=1;" edge="1" parent="1" source="AtO99DyVUEuOZSjqvL5Y-2" target="AtO99DyVUEuOZSjqvL5Y-4">
          <mxGeometry relative="1" as="geometry" />
        </mxCell>
        <mxCell id="AtO99DyVUEuOZSjqvL5Y-2" value="Data Pretreatment" style="rounded=0;whiteSpace=wrap;html=1;fillColor=#f8cecc;strokeColor=#b85450;container=0;" vertex="1" parent="1">
          <mxGeometry x="170" y="111.61016949152544" width="440.00000000000006" height="115.93220338983052" as="geometry" />
        </mxCell>
        <mxCell id="AtO99DyVUEuOZSjqvL5Y-3" value="" style="edgeStyle=orthogonalEdgeStyle;rounded=0;orthogonalLoop=1;jettySize=auto;html=1;fillColor=#d5e8d4;strokeColor=#82b366;strokeWidth=1;" edge="1" parent="1" source="AtO99DyVUEuOZSjqvL5Y-4" target="AtO99DyVUEuOZSjqvL5Y-7">
          <mxGeometry relative="1" as="geometry" />
        </mxCell>
        <mxCell id="AtO99DyVUEuOZSjqvL5Y-4" value="Model calibration" style="rounded=0;whiteSpace=wrap;html=1;fillColor=#d5e8d4;strokeColor=#82b366;strokeWidth=1;container=0;" vertex="1" parent="1">
          <mxGeometry x="170" y="343.4745762711865" width="440.00000000000006" height="115.93220338983052" as="geometry" />
        </mxCell>
        <mxCell id="AtO99DyVUEuOZSjqvL5Y-5" value="Cleaned data" style="text;html=1;align=center;verticalAlign=middle;resizable=0;points=[];autosize=1;strokeColor=none;fillColor=none;strokeWidth=1;container=0;" vertex="1" parent="1">
          <mxGeometry x="390" y="266.1864406779662" width="90" height="30" as="geometry" />
        </mxCell>
        <mxCell id="AtO99DyVUEuOZSjqvL5Y-6" value="" style="edgeStyle=orthogonalEdgeStyle;rounded=0;orthogonalLoop=1;jettySize=auto;html=1;fillColor=#dae8fc;strokeColor=#6c8ebf;strokeWidth=1;" edge="1" parent="1" source="AtO99DyVUEuOZSjqvL5Y-7" target="AtO99DyVUEuOZSjqvL5Y-10">
          <mxGeometry relative="1" as="geometry" />
        </mxCell>
        <mxCell id="AtO99DyVUEuOZSjqvL5Y-7" value="Parameter optimization" style="rounded=0;whiteSpace=wrap;html=1;fillColor=#dae8fc;strokeColor=#6c8ebf;strokeWidth=1;container=0;" vertex="1" parent="1">
          <mxGeometry x="170" y="575.3389830508476" width="440.00000000000006" height="115.93220338983052" as="geometry" />
        </mxCell>
        <mxCell id="AtO99DyVUEuOZSjqvL5Y-8" value="Optimal LVs" style="text;html=1;align=center;verticalAlign=middle;resizable=0;points=[];autosize=1;strokeColor=none;fillColor=none;strokeWidth=1;container=0;" vertex="1" parent="1">
          <mxGeometry x="390" y="498.0508474576272" width="90" height="30" as="geometry" />
        </mxCell>
        <mxCell id="AtO99DyVUEuOZSjqvL5Y-9" value="" style="edgeStyle=orthogonalEdgeStyle;rounded=0;orthogonalLoop=1;jettySize=auto;html=1;fillColor=#f8cecc;strokeColor=#b85450;strokeWidth=1;" edge="1" parent="1" source="AtO99DyVUEuOZSjqvL5Y-10" target="AtO99DyVUEuOZSjqvL5Y-12">
          <mxGeometry relative="1" as="geometry" />
        </mxCell>
        <mxCell id="AtO99DyVUEuOZSjqvL5Y-10" value="Evaluation" style="rounded=0;whiteSpace=wrap;html=1;fillColor=#f8cecc;strokeColor=#b85450;strokeWidth=1;container=0;" vertex="1" parent="1">
          <mxGeometry x="170" y="807.2033898305086" width="440.00000000000006" height="115.93220338983052" as="geometry" />
        </mxCell>
        <mxCell id="AtO99DyVUEuOZSjqvL5Y-11" value="Optimal variables" style="text;html=1;align=center;verticalAlign=middle;resizable=0;points=[];autosize=1;strokeColor=none;fillColor=none;strokeWidth=1;container=0;" vertex="1" parent="1">
          <mxGeometry x="390" y="729.9152542372881" width="120" height="30" as="geometry" />
        </mxCell>
        <mxCell id="AtO99DyVUEuOZSjqvL5Y-12" value="Metrics&amp;nbsp;&lt;div&gt;(Q^2, RMSE)&lt;/div&gt;" style="shape=parallelogram;perimeter=parallelogramPerimeter;whiteSpace=wrap;html=1;fixedSize=1;fillColor=#f8cecc;strokeColor=#b85450;rounded=0;strokeWidth=1;container=0;" vertex="1" parent="1">
          <mxGeometry x="170" y="1039.0677966101694" width="440.00000000000006" height="115.93220338983052" as="geometry" />
        </mxCell>
        <mxCell id="AtO99DyVUEuOZSjqvL5Y-13" value="Predictions" style="text;html=1;align=center;verticalAlign=middle;resizable=0;points=[];autosize=1;strokeColor=none;fillColor=none;strokeWidth=1;container=0;" vertex="1" parent="1">
          <mxGeometry x="390" y="961.7796610169493" width="80" height="30" as="geometry" />
        </mxCell>
        <mxCell id="9rmF_Dvli8BL6WIRr6ve-1" value="General Modelling flow" style="text;html=1;align=center;verticalAlign=middle;resizable=0;points=[];autosize=1;strokeColor=none;fillColor=none;rounded=0;fontStyle=5;fontSize=15;container=0;" vertex="1" parent="1">
          <mxGeometry x="300" y="30" width="180" height="30" as="geometry" />
        </mxCell>
      </root>
    </mxGraphModel>
  </diagram>
  <diagram id="DHIxM5kKstDGpM1JXpmX" name="Calibration">
    <mxGraphModel grid="1" page="1" gridSize="10" guides="1" tooltips="1" connect="1" arrows="1" fold="1" pageScale="1" pageWidth="827" pageHeight="1169" math="0" shadow="0">
      <root>
        <mxCell id="0" />
        <mxCell id="1" parent="0" />
        <mxCell id="HC-4eTAnl6PQGrB7JYA--1" value="" style="edgeStyle=orthogonalEdgeStyle;rounded=0;orthogonalLoop=1;jettySize=auto;html=1;fillColor=#d5e8d4;strokeColor=#82b366;fontColor=#000000;" edge="1" parent="1" source="HC-4eTAnl6PQGrB7JYA--2" target="HC-4eTAnl6PQGrB7JYA--6">
          <mxGeometry relative="1" as="geometry" />
        </mxCell>
        <mxCell id="HC-4eTAnl6PQGrB7JYA--2" value="Model parameters" style="whiteSpace=wrap;html=1;fillColor=#d5e8d4;strokeColor=#82b366;fontColor=#000000;" vertex="1" parent="1">
          <mxGeometry x="465" y="140" width="160" height="60" as="geometry" />
        </mxCell>
        <mxCell id="HC-4eTAnl6PQGrB7JYA--22" value="" style="edgeStyle=orthogonalEdgeStyle;rounded=0;orthogonalLoop=1;jettySize=auto;html=1;fillColor=#d5e8d4;strokeColor=#82b366;entryX=0.5;entryY=0;entryDx=0;entryDy=0;fontColor=#000000;" edge="1" parent="1" source="HC-4eTAnl6PQGrB7JYA--24" target="HC-4eTAnl6PQGrB7JYA--29">
          <mxGeometry relative="1" as="geometry">
            <mxPoint x="566.25" y="880" as="targetPoint" />
          </mxGeometry>
        </mxCell>
        <mxCell id="HC-4eTAnl6PQGrB7JYA--27" style="edgeStyle=orthogonalEdgeStyle;rounded=0;orthogonalLoop=1;jettySize=auto;html=1;exitX=0.5;exitY=0;exitDx=0;exitDy=0;entryX=0;entryY=0.5;entryDx=0;entryDy=0;fillColor=#d5e8d4;strokeColor=#82b366;fontColor=#000000;" edge="1" parent="1" source="HC-4eTAnl6PQGrB7JYA--28" target="HC-4eTAnl6PQGrB7JYA--2">
          <mxGeometry relative="1" as="geometry" />
        </mxCell>
        <mxCell id="LXlAwFxmOWdpdfeXkK6a-1" value="Model calibration&amp;nbsp;&lt;div&gt;with crossvalidation&lt;/div&gt;" style="text;html=1;align=center;verticalAlign=middle;resizable=0;points=[];autosize=1;strokeColor=none;fillColor=none;rounded=0;fontStyle=5;fontSize=15;fontColor=#000000;" vertex="1" parent="1">
          <mxGeometry x="285" y="60" width="150" height="50" as="geometry" />
        </mxCell>
        <mxCell id="HC-4eTAnl6PQGrB7JYA--3" value="" style="edgeStyle=orthogonalEdgeStyle;rounded=0;orthogonalLoop=1;jettySize=auto;html=1;fillColor=#d5e8d4;strokeColor=#82b366;fontColor=#000000;" edge="1" parent="1" source="HC-4eTAnl6PQGrB7JYA--4" target="HC-4eTAnl6PQGrB7JYA--6">
          <mxGeometry relative="1" as="geometry" />
        </mxCell>
        <mxCell id="HC-4eTAnl6PQGrB7JYA--4" value="K-Fold data split" style="whiteSpace=wrap;html=1;fillColor=#d5e8d4;strokeColor=#82b366;fontColor=#000000;" vertex="1" parent="1">
          <mxGeometry x="167.5" y="280" width="175" height="60" as="geometry" />
        </mxCell>
        <mxCell id="HC-4eTAnl6PQGrB7JYA--5" value="" style="edgeStyle=orthogonalEdgeStyle;rounded=0;orthogonalLoop=1;jettySize=auto;html=1;fillColor=#d5e8d4;strokeColor=#82b366;fontColor=#000000;" edge="1" parent="1" source="HC-4eTAnl6PQGrB7JYA--6" target="HC-4eTAnl6PQGrB7JYA--9">
          <mxGeometry relative="1" as="geometry" />
        </mxCell>
        <mxCell id="HC-4eTAnl6PQGrB7JYA--6" value="Model fitting" style="whiteSpace=wrap;html=1;fillColor=#d5e8d4;strokeColor=#82b366;fontColor=#000000;" vertex="1" parent="1">
          <mxGeometry x="435" y="270" width="220" height="80" as="geometry" />
        </mxCell>
        <mxCell id="HC-4eTAnl6PQGrB7JYA--7" value="k-th subset&amp;nbsp;&lt;div&gt;of training samples&lt;/div&gt;" style="text;html=1;align=center;verticalAlign=middle;resizable=0;points=[];autosize=1;strokeColor=none;fillColor=none;fontColor=#000000;" vertex="1" parent="1">
          <mxGeometry x="345" y="230" width="120" height="40" as="geometry" />
        </mxCell>
        <mxCell id="HC-4eTAnl6PQGrB7JYA--8" value="" style="edgeStyle=orthogonalEdgeStyle;rounded=0;orthogonalLoop=1;jettySize=auto;html=1;fillColor=#d5e8d4;strokeColor=#82b366;fontColor=#000000;" edge="1" parent="1" source="HC-4eTAnl6PQGrB7JYA--9" target="HC-4eTAnl6PQGrB7JYA--14">
          <mxGeometry relative="1" as="geometry" />
        </mxCell>
        <mxCell id="HC-4eTAnl6PQGrB7JYA--9" value="Model validation" style="whiteSpace=wrap;html=1;fillColor=#d5e8d4;strokeColor=#82b366;fontColor=#000000;" vertex="1" parent="1">
          <mxGeometry x="435" y="430" width="220" height="80" as="geometry" />
        </mxCell>
        <mxCell id="HC-4eTAnl6PQGrB7JYA--10" value="Betas" style="text;html=1;align=center;verticalAlign=middle;resizable=0;points=[];autosize=1;strokeColor=none;fillColor=none;fontColor=#000000;" vertex="1" parent="1">
          <mxGeometry x="540" y="380" width="50" height="30" as="geometry" />
        </mxCell>
        <mxCell id="HC-4eTAnl6PQGrB7JYA--11" value="nLVs" style="text;html=1;align=center;verticalAlign=middle;resizable=0;points=[];autosize=1;strokeColor=none;fillColor=none;fontColor=#000000;" vertex="1" parent="1">
          <mxGeometry x="540" y="220" width="50" height="30" as="geometry" />
        </mxCell>
        <mxCell id="HC-4eTAnl6PQGrB7JYA--12" value="" style="edgeStyle=orthogonalEdgeStyle;rounded=0;orthogonalLoop=1;jettySize=auto;html=1;fillColor=#d5e8d4;strokeColor=#82b366;fontColor=#000000;" edge="1" parent="1" source="HC-4eTAnl6PQGrB7JYA--14" target="HC-4eTAnl6PQGrB7JYA--16">
          <mxGeometry relative="1" as="geometry" />
        </mxCell>
        <mxCell id="HC-4eTAnl6PQGrB7JYA--13" style="edgeStyle=orthogonalEdgeStyle;rounded=0;orthogonalLoop=1;jettySize=auto;html=1;entryX=0.5;entryY=1;entryDx=0;entryDy=0;fillColor=#d5e8d4;strokeColor=#82b366;fontColor=#000000;" edge="1" parent="1" source="HC-4eTAnl6PQGrB7JYA--14" target="HC-4eTAnl6PQGrB7JYA--20">
          <mxGeometry relative="1" as="geometry" />
        </mxCell>
        <mxCell id="HC-4eTAnl6PQGrB7JYA--14" value="k = K?" style="rhombus;whiteSpace=wrap;html=1;fillColor=#d5e8d4;strokeColor=#82b366;fontColor=#000000;" vertex="1" parent="1">
          <mxGeometry x="470" y="570" width="150" height="110" as="geometry" />
        </mxCell>
        <mxCell id="HC-4eTAnl6PQGrB7JYA--15" style="edgeStyle=orthogonalEdgeStyle;rounded=0;orthogonalLoop=1;jettySize=auto;html=1;exitX=0.5;exitY=1;exitDx=0;exitDy=0;entryX=0.5;entryY=0;entryDx=0;entryDy=0;fillColor=#d5e8d4;strokeColor=#82b366;fontColor=#000000;" edge="1" parent="1" source="HC-4eTAnl6PQGrB7JYA--16" target="HC-4eTAnl6PQGrB7JYA--24">
          <mxGeometry relative="1" as="geometry" />
        </mxCell>
        <mxCell id="HC-4eTAnl6PQGrB7JYA--16" value="Mean of Metrics over K-folds" style="whiteSpace=wrap;html=1;fillColor=#d5e8d4;strokeColor=#82b366;fontColor=#000000;" vertex="1" parent="1">
          <mxGeometry x="435" y="750" width="220" height="80" as="geometry" />
        </mxCell>
        <mxCell id="HC-4eTAnl6PQGrB7JYA--17" value="Yes" style="text;html=1;align=center;verticalAlign=middle;resizable=0;points=[];autosize=1;strokeColor=none;fillColor=none;fontColor=#000000;" vertex="1" parent="1">
          <mxGeometry x="545" y="700" width="40" height="30" as="geometry" />
        </mxCell>
        <mxCell id="HC-4eTAnl6PQGrB7JYA--18" value="No" style="text;html=1;align=center;verticalAlign=middle;resizable=0;points=[];autosize=1;strokeColor=none;fillColor=none;fontColor=#000000;" vertex="1" parent="1">
          <mxGeometry x="405" y="580" width="40" height="30" as="geometry" />
        </mxCell>
        <mxCell id="HC-4eTAnl6PQGrB7JYA--19" style="edgeStyle=orthogonalEdgeStyle;rounded=0;orthogonalLoop=1;jettySize=auto;html=1;entryX=0.5;entryY=1;entryDx=0;entryDy=0;fillColor=#d5e8d4;strokeColor=#82b366;fontColor=#000000;" edge="1" parent="1" source="HC-4eTAnl6PQGrB7JYA--20" target="HC-4eTAnl6PQGrB7JYA--4">
          <mxGeometry relative="1" as="geometry" />
        </mxCell>
        <mxCell id="HC-4eTAnl6PQGrB7JYA--20" value="k += 1" style="whiteSpace=wrap;html=1;fillColor=#d5e8d4;strokeColor=#82b366;fontColor=#000000;" vertex="1" parent="1">
          <mxGeometry x="200" y="430" width="110" height="40" as="geometry" />
        </mxCell>
        <mxCell id="HC-4eTAnl6PQGrB7JYA--21" value="Metrics" style="text;html=1;align=center;verticalAlign=middle;resizable=0;points=[];autosize=1;strokeColor=none;fillColor=none;fontColor=#000000;" vertex="1" parent="1">
          <mxGeometry x="545" y="530" width="60" height="30" as="geometry" />
        </mxCell>
        <mxCell id="HC-4eTAnl6PQGrB7JYA--23" style="edgeStyle=orthogonalEdgeStyle;rounded=0;orthogonalLoop=1;jettySize=auto;html=1;exitX=0;exitY=0.5;exitDx=0;exitDy=0;entryX=0.5;entryY=1;entryDx=0;entryDy=0;fillColor=#d5e8d4;strokeColor=#82b366;fontColor=#000000;" edge="1" parent="1" source="HC-4eTAnl6PQGrB7JYA--24" target="HC-4eTAnl6PQGrB7JYA--28">
          <mxGeometry relative="1" as="geometry" />
        </mxCell>
        <mxCell id="HC-4eTAnl6PQGrB7JYA--24" value="nLVs =&amp;nbsp;&lt;div&gt;# of Features?&lt;/div&gt;" style="rhombus;whiteSpace=wrap;html=1;fillColor=#d5e8d4;strokeColor=#82b366;fontColor=#000000;" vertex="1" parent="1">
          <mxGeometry x="435" y="890" width="220" height="130" as="geometry" />
        </mxCell>
        <mxCell id="HC-4eTAnl6PQGrB7JYA--25" value="Yes" style="text;html=1;align=center;verticalAlign=middle;resizable=0;points=[];autosize=1;strokeColor=none;fillColor=none;fontColor=#000000;" vertex="1" parent="1">
          <mxGeometry x="545" y="1020" width="40" height="30" as="geometry" />
        </mxCell>
        <mxCell id="HC-4eTAnl6PQGrB7JYA--26" value="No" style="text;html=1;align=center;verticalAlign=middle;resizable=0;points=[];autosize=1;strokeColor=none;fillColor=none;fontColor=#000000;" vertex="1" parent="1">
          <mxGeometry x="360" y="910" width="40" height="30" as="geometry" />
        </mxCell>
        <mxCell id="HC-4eTAnl6PQGrB7JYA--28" value="nLVs += 1" style="whiteSpace=wrap;html=1;fillColor=#d5e8d4;strokeColor=#82b366;fontColor=#000000;" vertex="1" parent="1">
          <mxGeometry x="80" y="570" width="110" height="40" as="geometry" />
        </mxCell>
        <mxCell id="HC-4eTAnl6PQGrB7JYA--29" value="Results of crossvalidation" style="shape=parallelogram;perimeter=parallelogramPerimeter;whiteSpace=wrap;html=1;fixedSize=1;fillColor=#d5e8d4;strokeColor=#82b366;fontColor=#000000;" vertex="1" parent="1">
          <mxGeometry x="435" y="1070" width="220" height="80" as="geometry" />
        </mxCell>
      </root>
    </mxGraphModel>
  </diagram>
  <diagram id="QOTgG1cbSFdjG_q50XMz" name="Optimization">
    <mxGraphModel grid="1" page="1" gridSize="10" guides="1" tooltips="1" connect="1" arrows="1" fold="1" pageScale="1" pageWidth="827" pageHeight="1169" math="0" shadow="0">
      <root>
        <mxCell id="0" />
        <mxCell id="1" parent="0" />
        <mxCell id="Zh2wxG7j-IjE71XZJxr8-1" value="" style="edgeStyle=orthogonalEdgeStyle;rounded=0;orthogonalLoop=1;jettySize=auto;html=1;fillColor=#dae8fc;strokeColor=#6c8ebf;" edge="1" parent="1" source="Zh2wxG7j-IjE71XZJxr8-2" target="Zh2wxG7j-IjE71XZJxr8-4">
          <mxGeometry relative="1" as="geometry" />
        </mxCell>
        <mxCell id="Zh2wxG7j-IjE71XZJxr8-2" value="Full model" style="whiteSpace=wrap;html=1;fillColor=#dae8fc;strokeColor=#6c8ebf;container=0;" vertex="1" parent="1">
          <mxGeometry x="184.86363636363643" y="134.2622950819672" width="452.727272727273" height="115.08196721311475" as="geometry" />
        </mxCell>
        <mxCell id="Zh2wxG7j-IjE71XZJxr8-3" value="" style="edgeStyle=orthogonalEdgeStyle;rounded=0;orthogonalLoop=1;jettySize=auto;html=1;fillColor=#dae8fc;strokeColor=#6c8ebf;" edge="1" parent="1" source="Zh2wxG7j-IjE71XZJxr8-4" target="Zh2wxG7j-IjE71XZJxr8-7">
          <mxGeometry relative="1" as="geometry" />
        </mxCell>
        <mxCell id="Zh2wxG7j-IjE71XZJxr8-4" value="Model fitting" style="whiteSpace=wrap;html=1;fillColor=#dae8fc;strokeColor=#6c8ebf;container=0;" vertex="1" parent="1">
          <mxGeometry x="184.86363636363643" y="364.4262295081967" width="452.727272727273" height="115.08196721311475" as="geometry" />
        </mxCell>
        <mxCell id="Zh2wxG7j-IjE71XZJxr8-5" value="Optimal # of LVs" style="text;html=1;align=center;verticalAlign=middle;resizable=0;points=[];autosize=1;strokeColor=none;fillColor=none;container=0;" vertex="1" parent="1">
          <mxGeometry x="411.2272727272728" y="287.70491803278685" width="110" height="30" as="geometry" />
        </mxCell>
        <mxCell id="Zh2wxG7j-IjE71XZJxr8-6" value="" style="edgeStyle=orthogonalEdgeStyle;rounded=0;orthogonalLoop=1;jettySize=auto;html=1;fillColor=#dae8fc;strokeColor=#6c8ebf;" edge="1" parent="1" source="Zh2wxG7j-IjE71XZJxr8-7" target="Zh2wxG7j-IjE71XZJxr8-10">
          <mxGeometry relative="1" as="geometry" />
        </mxCell>
        <mxCell id="Zh2wxG7j-IjE71XZJxr8-7" value="Variable importance analysis" style="whiteSpace=wrap;html=1;fillColor=#dae8fc;strokeColor=#6c8ebf;container=0;" vertex="1" parent="1">
          <mxGeometry x="184.86363636363643" y="594.5901639344262" width="452.727272727273" height="115.08196721311475" as="geometry" />
        </mxCell>
        <mxCell id="Zh2wxG7j-IjE71XZJxr8-8" value="Coefficients" style="text;html=1;align=center;verticalAlign=middle;resizable=0;points=[];autosize=1;strokeColor=none;fillColor=none;container=0;" vertex="1" parent="1">
          <mxGeometry x="411.2272727272728" y="517.8688524590164" width="90" height="30" as="geometry" />
        </mxCell>
        <mxCell id="Zh2wxG7j-IjE71XZJxr8-9" value="" style="edgeStyle=orthogonalEdgeStyle;rounded=0;orthogonalLoop=1;jettySize=auto;html=1;fillColor=#dae8fc;strokeColor=#6c8ebf;" edge="1" parent="1" source="Zh2wxG7j-IjE71XZJxr8-10" target="Zh2wxG7j-IjE71XZJxr8-11">
          <mxGeometry relative="1" as="geometry" />
        </mxCell>
        <mxCell id="Zh2wxG7j-IjE71XZJxr8-10" value="Reduced model" style="whiteSpace=wrap;html=1;fillColor=#dae8fc;strokeColor=#6c8ebf;container=0;" vertex="1" parent="1">
          <mxGeometry x="184.86363636363643" y="824.7540983606558" width="452.727272727273" height="115.08196721311475" as="geometry" />
        </mxCell>
        <mxCell id="Zh2wxG7j-IjE71XZJxr8-11" value="Evaluation" style="whiteSpace=wrap;html=1;fillColor=#dae8fc;strokeColor=#6c8ebf;container=0;" vertex="1" parent="1">
          <mxGeometry x="184.86363636363643" y="1054.9180327868853" width="452.727272727273" height="115.08196721311475" as="geometry" />
        </mxCell>
        <mxCell id="Zh2wxG7j-IjE71XZJxr8-12" value="Optimized Betas" style="text;html=1;align=center;verticalAlign=middle;resizable=0;points=[];autosize=1;strokeColor=none;fillColor=none;container=0;" vertex="1" parent="1">
          <mxGeometry x="411.2272727272728" y="978.1967213114754" width="110" height="30" as="geometry" />
        </mxCell>
        <mxCell id="8uabfI5KbDGkZrEzxbeZ-1" value="Parameter optimization&amp;nbsp;&lt;div&gt;with dimsensionality reduction&lt;/div&gt;" style="text;html=1;align=center;verticalAlign=middle;resizable=0;points=[];autosize=1;strokeColor=none;fillColor=none;rounded=0;fontStyle=5;fontSize=15;container=0;" vertex="1" parent="1">
          <mxGeometry x="304" y="30" width="220" height="50" as="geometry" />
        </mxCell>
      </root>
    </mxGraphModel>
  </diagram>
</mxfile>
